PathFileType	4	(X/Y/Z)	Kaydara	
DataRate	CameraRate	NumFrames	NumMarkers	Units	OrigDataRate	OrigDataStartFrame	OrigNumFrames	
60.00	60.00	4	74	mm	60.00	218	96	
Frame#	Time	Z_lasi			Z_rasi			Z_rpsi			Z_lpsi			Z_fneck			Z_bneck			Z_fhead			Z_rhead			Z_lhead			Z_rshld			Z_relbtop			Z_relbext			Z_relblow			Z_rwrext			Z_rwrtop			Z_rwrlow			Z_lshld			Z_lelbext			Z_lelblow			Z_lelbtop			Z_lwrext			Z_lwrtop			Z_lwrlow			Z_rtopleg			Z_ltopleg			Z_rkneefr			Z_rkneebk			Z_rkneeis			Z_lkneefr			Z_lknssbk			Z_lkneeis			Z_rankfr			Z_rankis			Z_rankbk			Z_lankfr			Z_lankbk			Z_lankis			A_lasi			A_rasi			A_rpsi			A_lpsi			A_fneck			A_bneck			A_fhead			A_rhead			A_lhead			A_rshld			A_relbtop			A_relbext			A_relblow			A_rwrext			A_rwrtop			A_rwrlow			A_lshld			A_lelbext			A_lelblow			A_lelbtop			A_lwrext			A_lwrtop			A_lwrlow			A_rtopleg			A_ltopleg			A_rkneefr			A_rkneebk			A_rkneeis			A_lkneefr			A_lknssbk			A_lkneeis			A_rankfr			A_rankis			A_rankbk			A_lankfr			A_lankbk			A_lankis			
		X1	Y1	Z1	X2	Y2	Z2	X3	Y3	Z3	X4	Y4	Z4	X5	Y5	Z5	X6	Y6	Z6	X7	Y7	Z7	X8	Y8	Z8	X9	Y9	Z9	X10	Y10	Z10	X11	Y11	Z11	X12	Y12	Z12	X13	Y13	Z13	X14	Y14	Z14	X15	Y15	Z15	X16	Y16	Z16	X17	Y17	Z17	X18	Y18	Z18	X19	Y19	Z19	X20	Y20	Z20	X21	Y21	Z21	X22	Y22	Z22	X23	Y23	Z23	X24	Y24	Z24	X25	Y25	Z25	X26	Y26	Z26	X27	Y27	Z27	X28	Y28	Z28	X29	Y29	Z29	X30	Y30	Z30	X31	Y31	Z31	X32	Y32	Z32	X33	Y33	Z33	X34	Y34	Z34	X35	Y35	Z35	X36	Y36	Z36	X37	Y37	Z37	X38	Y38	Z38	X39	Y39	Z39	X40	Y40	Z40	X41	Y41	Z41	X42	Y42	Z42	X43	Y43	Z43	X44	Y44	Z44	X45	Y45	Z45	X46	Y46	Z46	X47	Y47	Z47	X48	Y48	Z48	X49	Y49	Z49	X50	Y50	Z50	X51	Y51	Z51	X52	Y52	Z52	X53	Y53	Z53	X54	Y54	Z54	X55	Y55	Z55	X56	Y56	Z56	X57	Y57	Z57	X58	Y58	Z58	X59	Y59	Z59	X60	Y60	Z60	X61	Y61	Z61	X62	Y62	Z62	X63	Y63	Z63	X64	Y64	Z64	X65	Y65	Z65	X66	Y66	Z66	X67	Y67	Z67	X68	Y68	Z68	X69	Y69	Z69	X70	Y70	Z70	X71	Y71	Z71	X72	Y72	Z72	X73	Y73	Z73	X74	Y74	Z74	

13	3.617	-258.87421	1086.33263	620.77095	-354.95586	1083.00415	433.97411	-198.48948	1109.70261	317.34674	-82.74523	1103.79005	537.26624	-284.10303	1453.18634	471.97319	-174.28413	1510.30853	436.36497	-370.11467	1653.43933	430.21988	-226.69941	1638.32123	343.06244	-210.12817	1658.45078	489.16512	-284.30668	1432.03217	271.13810	-389.80145	1124.80225	236.45391	-367.39735	1109.90768	293.62640	-417.80151	1193.30704	273.18613	-595.23235	1131.90697	396.56227	-588.27015	1178.16086	396.56506	-560.03399	1177.75002	430.79224	-126.44473	1470.85724	617.10773	-60.45055	1162.28615	639.04083	-96.04152	1191.81252	718.37997	-29.07501	1192.61780	697.97043	-148.16841	936.17714	764.55063	-120.43750	935.04303	803.67516	-80.90696	931.24130	780.87204	-247.58533	921.91833	291.63548	-165.69857	897.41730	651.27037	-288.57601	423.11119	394.38820	-225.66835	444.83116	333.58170	-216.01208	437.81364	458.14819	-262.16400	452.54169	655.25711	-157.94579	480.81219	644.19601	-248.27732	445.55725	564.03156	-259.97158	178.22567	392.84721	-230.40592	179.35789	452.92641	-185.33970	166.47343	378.44582	-150.41110	176.07828	659.72137	-88.44072	188.14966	609.21741	-165.02228	181.04748	588.96503	-1153.84079	1017.71179	478.40366	-1116.31424	1033.40050	633.41450	-1267.00722	1023.49052	679.00421	-1275.80345	1016.54533	495.88818	-1198.11707	1367.87140	589.40880	-1338.19885	1388.11981	601.40575	-1149.45023	1576.48331	578.17131	-1280.09384	1547.07428	687.01088	-1305.82001	1535.72723	525.61230	-1243.52844	1335.94894	772.22923	-1120.40443	1090.21950	789.88052	-1157.75307	1039.69566	774.02725	-1116.51382	1092.70103	733.85651	-904.77280	1109.42398	749.62006	-917.84744	1153.68980	756.22490	-931.47789	1146.63635	718.58475	-1269.58862	1346.57043	421.31016	-1272.80113	1032.38670	412.85194	-1203.31299	1052.05872	404.09607	-1246.98929	1043.95348	371.71333	-1149.55322	829.72343	385.15060	-1171.02524	828.69522	347.06009	-1129.52248	845.91301	337.28752	-1180.21103	874.13467	760.61127	-1208.24585	858.93150	419.70860	-1093.07785	458.15720	651.91185	-1194.16153	474.75044	713.89633	-1195.19447	478.67893	595.47352	-1053.62488	444.71077	503.93215	-1165.57106	456.12930	440.60486	-1146.39061	452.98271	565.91034	-1113.57437	164.13740	666.18729	-1155.80429	158.94656	605.96344	-1191.24634	139.36025	679.20357	-1302.39746	206.39952	469.09672	-1352.46735	252.95723	450.10384	-1330.29999	239.09946	535.94776 
14	3.633	-260.48845	1086.11031	620.98034	-357.22820	1082.75978	434.53739	-201.14185	1109.50127	317.20144	-84.88022	1103.65944	536.99974	-286.72798	1452.76642	471.13377	-177.46229	1510.18616	435.14088	-374.10736	1652.00089	429.35562	-230.79594	1637.98080	341.80931	-214.08684	1658.31146	487.93770	-288.04974	1431.28174	270.76084	-396.06640	1124.93446	239.68449	-373.25901	1110.41428	296.58403	-423.61797	1193.34930	276.02964	-600.45891	1131.62773	400.75264	-594.08722	1177.80922	400.26405	-565.75508	1177.81761	434.36935	-128.34762	1471.13129	615.60898	-61.53914	1162.85446	637.67712	-97.29733	1192.27356	716.82236	-30.56994	1193.11424	696.91429	-151.54529	937.77008	763.39661	-123.77261	936.27869	802.46140	-84.30462	932.09106	779.58115	-250.37800	921.96167	291.92747	-166.64858	896.98242	650.68130	-289.20776	422.93106	394.45614	-226.28859	444.83658	333.60569	-215.72376	437.61158	457.64709	-261.50986	452.42439	649.91768	-156.24362	477.75551	641.49147	-245.74438	444.70741	559.02710	-260.19924	178.16187	392.95303	-230.70917	179.31599	453.07606	-185.56643	166.49210	378.51780	-164.54283	171.79163	659.16489	-101.23580	180.18194	610.10395	-177.82360	176.97336	587.98100	-1150.74478	1017.46094	479.73354	-1110.89218	1033.24295	633.91323	-1261.82838	1023.28598	681.30524	-1272.49664	1016.03477	498.30418	-1192.56744	1367.86255	590.71232	-1332.34833	1388.04047	604.41849	-1142.80197	1576.22833	578.09303	-1272.29462	1547.43393	688.43452	-1299.45831	1535.14008	527.28424	-1235.27252	1336.12869	773.57292	-1104.77943	1094.07349	789.78088	-1140.81474	1042.65228	775.17014	-1102.40234	1095.84671	733.17177	-887.50381	1108.27934	741.51680	-898.97064	1152.47231	750.14061	-914.67712	1147.55882	712.86751	-1266.57990	1346.20712	423.65578	-1268.32489	1031.77139	416.52546	-1199.24660	1052.31667	406.60763	-1243.25500	1043.40828	375.05737	-1140.79308	831.61186	388.38066	-1162.63153	829.61243	350.42084	-1121.99242	847.85576	339.88789	-1175.08217	873.98285	761.98860	-1205.18829	859.00101	419.79618	-1090.37231	457.86198	652.18796	-1191.30844	474.91756	714.91165	-1192.94174	479.07932	596.45149	-1037.67685	448.67729	503.25047	-1149.94530	457.95193	440.19279	-1129.43588	455.12142	566.31477	-1112.96455	163.82708	666.43066	-1155.31509	159.05239	606.20037	-1190.69748	139.65151	679.63402	-1287.65991	211.16049	470.41687	-1337.42355	258.29069	451.96201	-1314.61670	244.14188	537.61230 
15	3.650	-262.16692	1085.74165	621.39801	-359.11942	1082.49046	435.36781	-203.58391	1109.34792	317.22494	-86.77596	1103.57216	536.84555	-289.17751	1452.11731	470.65361	-180.54319	1510.10544	434.10263	-378.07476	1650.55130	428.55404	-234.81741	1637.65945	340.79670	-218.12166	1658.28308	486.83453	-291.40575	1430.48508	270.59536	-402.15134	1125.20187	243.20480	-379.08932	1111.04477	299.93591	-429.27925	1193.75786	279.10524	-605.99331	1131.34659	405.09674	-599.97112	1177.68646	404.34750	-571.58009	1178.00789	438.37143	-130.05930	1471.40305	614.36687	-63.20218	1163.12271	636.87878	-99.14789	1192.86858	715.68886	-31.82460	1193.77686	695.67543	-154.71039	939.16405	762.64336	-127.13399	937.40128	801.76262	-87.63518	932.72530	778.66982	-253.03577	922.05017	292.17983	-167.40154	896.60530	650.30167	-289.80442	422.79644	394.51790	-226.96251	444.83753	333.74355	-214.77982	437.15523	456.72710	-261.07437	452.19074	646.06384	-154.84542	475.11017	637.84420	-244.87295	443.77529	555.34561	-260.34737	178.11808	393.06282	-230.86735	179.29861	453.18668	-185.77515	166.56487	378.63075	-175.22161	169.26104	657.83325	-111.74960	175.15110	608.02933	-187.93989	174.47147	586.29478	-1147.22580	1017.87544	480.63168	-1106.58333	1033.36754	635.02338	-1256.68991	1023.43048	683.35625	-1268.97087	1016.31744	500.42068	-1187.16347	1368.10089	591.78913	-1326.78741	1388.39920	607.31602	-1136.09070	1576.14975	578.02860	-1264.50119	1547.88452	689.84909	-1293.22586	1535.13550	529.00906	-1227.15385	1336.61865	774.60716	-1089.01367	1098.61443	788.65250	-1124.23660	1046.35529	775.56656	-1088.41576	1099.64996	731.79047	-870.87288	1107.84882	733.24089	-881.28242	1152.00905	743.52448	-898.23784	1148.89481	706.73820	-1263.56346	1346.09970	425.80868	-1264.26140	1031.25473	419.68472	-1195.63133	1052.67143	409.14566	-1239.74998	1043.06496	377.90157	-1132.22496	833.21365	391.35822	-1154.83200	830.80078	353.66333	-1114.78638	850.03136	342.23339	-1170.33531	873.79738	763.10585	-1201.12442	859.64813	420.80036	-1087.26456	457.70027	652.15652	-1188.62671	475.15995	715.44342	-1190.21576	479.52938	596.90231	-1023.52463	453.07919	503.24963	-1135.75554	460.36278	440.19428	-1114.56352	457.32773	566.45882	-1112.21054	163.69556	666.50169	-1154.53735	159.15850	606.29116	-1189.97307	140.01096	679.71519	-1271.86806	214.15058	471.46809	-1322.02438	261.29934	453.79910	-1298.52890	246.92816	539.17027 
16	3.667	-263.39991	1085.41428	621.85436	-360.80379	1082.25723	436.25420	-205.77274	1109.35997	317.35668	-88.54509	1103.57620	536.83422	-291.40680	1451.64581	470.05058	-183.50950	1510.25543	433.35793	-382.01668	1649.10309	427.97485	-238.88557	1637.50397	339.87984	-221.79361	1658.51044	485.92758	-294.53070	1429.69208	270.55279	-408.33633	1125.91835	247.08447	-384.97528	1111.71951	303.63186	-434.89685	1194.40285	282.86072	-611.53606	1131.02982	409.49581	-605.94673	1177.25342	408.69751	-577.50938	1177.71645	442.57740	-131.77134	1471.76270	613.49365	-64.84426	1163.45802	635.88146	-100.69395	1193.27415	714.90067	-33.49185	1194.21631	694.87259	-157.82511	940.32974	762.29622	-129.91247	938.25119	801.26717	-90.85373	933.25142	778.11501	-255.25723	921.97945	292.51560	-168.10225	896.05240	649.97307	-290.71369	422.75860	394.99996	-227.73945	444.92107	334.00421	-215.88030	437.34787	457.27154	-262.26841	452.08679	644.00383	-155.88974	473.15582	635.29266	-246.37180	443.10528	553.07793	-260.54235	178.08773	393.28072	-231.10878	179.29546	453.42373	-186.03123	166.66578	378.80196	-178.87489	168.84283	655.59952	-116.47177	174.10915	603.19256	-193.45554	173.74676	584.17084	-1143.78799	1018.69759	481.77345	-1101.75537	1033.94897	635.77904	-1251.62354	1023.87085	685.16373	-1265.25253	1017.14485	502.42599	-1181.96205	1368.83606	592.64565	-1321.35178	1389.35089	609.91467	-1129.55956	1576.43829	578.20160	-1256.94664	1548.70544	691.25076	-1287.22382	1535.84274	530.75592	-1219.24606	1337.67487	775.40787	-1072.83798	1103.74252	786.51237	-1108.31947	1050.69717	775.01366	-1074.64340	1104.12865	729.81544	-855.16098	1108.85254	725.30228	-864.85092	1153.09708	736.23917	-882.71866	1150.69778	699.78989	-1260.57045	1346.24435	427.78557	-1260.48790	1031.01486	422.47189	-1192.09450	1053.32336	411.43311	-1236.47316	1043.04916	380.54840	-1124.44595	835.22995	394.06273	-1147.48512	832.23373	356.66359	-1108.16673	852.24258	344.48025	-1166.04065	873.67851	764.00093	-1197.24243	860.97984	421.26732	-1084.49707	457.62901	652.32735	-1185.83458	475.46291	715.38803	-1187.24831	480.11139	596.83777	-1010.49637	458.14091	503.45768	-1122.95578	463.13171	440.66933	-1101.58585	460.19096	566.63746	-1111.28235	163.59056	666.49147	-1153.54637	159.32841	606.02417	-1189.29123	140.31767	679.53033	-1255.17128	215.28502	472.32811	-1306.24115	261.79773	455.23506	-1282.05704	247.42861	540.58311 
